name C:\Users\Nicos\Desktop\Gil_twoSteps\Study2\ExperimentalData\IK_Splined\twoSteps_IK_BSplines_150_meshInts_study2_p02_s_01_lowIK_modROI.mot
datacolumns 38
datarows 15
range 0.65542132 0.66517333
endheader
                time	         pelvis_tilt	         pelvis_list	     pelvis_rotation	           pelvis_tx	           pelvis_ty	           pelvis_tz	       hip_flexion_r	     hip_adduction_r	      hip_rotation_r	        knee_angle_r	       ankle_angle_r	    subtalar_angle_r	         mtp_angle_r	       hip_flexion_l	     hip_adduction_l	      hip_rotation_l	        knee_angle_l	       ankle_angle_l	    subtalar_angle_l	         mtp_angle_l	    lumbar_extension	      lumbar_bending	     lumbar_rotation	          arm_flex_r	           arm_add_r	           arm_rot_r	        elbow_flex_r	           pro_sup_r	        wrist_flex_r	         wrist_dev_r	          arm_flex_l	           arm_add_l	           arm_rot_l	        elbow_flex_l	           pro_sup_l	        wrist_flex_l	         wrist_dev_l	
          0.65542132	        -17.56798758	          3.71775647	          9.42057472	          0.31035898	          0.89306483	          0.33991443	         30.74301155	         -9.43909030	        -15.91798540	       -111.44407628	        -14.78473943	        -31.60434879	         -8.95459348	         30.73514122	          6.10378600	         -0.08319407	        -50.35332613	         22.06914230	         -8.94369059	          6.10421755	        -27.91779814	         -8.96792998	         -2.18344097	        -29.88473978	        -10.34529820	        -16.01966827	         48.96469195	         77.13795570	        -27.10181184	         30.44424926	         -2.02177684	        -11.71462275	         -7.83011272	         69.25141188	         69.43355330	          4.67877622	         19.76479472	
          0.65645333	        -17.60981815	          3.61924251	          9.71742262	          0.31566894	          0.89278351	          0.33956635	         31.44359466	         -9.53350226	        -16.05055141	       -111.96047379	        -14.38238716	        -31.56646272	         -8.88437148	         30.36379711	          6.07906764	          0.13037963	        -50.21889705	         22.11424524	         -8.91915708	          6.27067425	        -27.85414258	         -8.66179934	         -2.23665508	        -30.50703624	        -10.18827156	        -16.25189602	         48.38634813	         77.13831040	        -27.05572887	         30.60537571	         -1.25774133	        -11.52944194	         -7.54471552	         69.79243307	         69.28675190	          4.68268263	         19.72532366	
          0.65645333	        -17.60981815	          3.61924251	          9.71742262	          0.31566894	          0.89278351	          0.33956635	         31.44359466	         -9.53350226	        -16.05055141	       -111.96047379	        -14.38238716	        -31.56646272	         -8.88437148	         30.36379711	          6.07906764	          0.13037963	        -50.21889705	         22.11424524	         -8.91915708	          6.27067425	        -27.85414258	         -8.66179934	         -2.23665508	        -30.50703624	        -10.18827156	        -16.25189602	         48.38634813	         77.13831040	        -27.05572887	         30.60537571	         -1.25774133	        -11.52944194	         -7.54471552	         69.79243307	         69.28675190	          4.68268263	         19.72532366	
          0.65690401	        -17.62808559	          3.57622139	          9.84705630	          0.31798781	          0.89266065	          0.33941434	         31.74953978	         -9.57473203	        -16.10844307	       -112.18598494	        -14.20667965	        -31.54991785	         -8.85370548	         30.20163088	          6.06827312	          0.22364741	        -50.16019178	         22.13394172	         -8.90844328	          6.34336601	        -27.82634416	         -8.52811188	         -2.25989372	        -30.77879353	        -10.11969792	        -16.35331004	         48.13378499	         77.13846529	        -27.03560440	         30.67573974	         -0.92408650	        -11.44857335	         -7.42008237	         70.02869740	         69.22264364	          4.68438856	         19.70808662	
          0.65832799	        -17.68539525	          3.43991667	         10.25756120	          0.32531312	          0.89227317	          0.33893388	         32.71623704	         -9.70581885	        -16.29151313	       -112.89638983	        -13.65189181	        -31.49752580	         -8.75642053	         29.68923127	          6.03318377	          0.51922842	        -49.97439823	         22.19421549	         -8.87361032	          6.57407116	        -27.73856705	         -8.10461145	         -2.33479945	        -31.63934315	         -9.90127726	        -16.67894640	         47.34547226	         77.13802817	        -26.97150674	         30.89722028	          0.12895877	        -11.19272414	         -7.02646049	         70.77855238	         69.01739677	          4.68953980	         19.65410880	
          0.65936000	        -17.72062987	          3.33533106	         10.56920838	          0.33060128	          0.89200289	          0.33858276	         33.41739502	         -9.81344891	        -16.42660174	       -113.37854093	        -13.25562106	        -31.45774794	         -8.67984630	         29.31755523	          5.99257233	          0.74723779	        -49.83497582	         22.20764578	         -8.83320501	          6.75716192	        -27.67579378	         -7.78065464	         -2.41195914	        -32.29247876	         -9.71586210	        -16.99539618	         46.92368607	         77.12340338	        -26.91713725	         31.04474904	          0.87411429	        -11.00208733	         -6.74377962	         71.37383303	         68.82709103	          4.68958522	         19.62246577	
          0.65936000	        -17.72062987	          3.33533106	         10.56920838	          0.33060128	          0.89200289	          0.33858276	         33.41739502	         -9.81344891	        -16.42660174	       -113.37854093	        -13.25562106	        -31.45774794	         -8.67984630	         29.31755523	          5.99257233	          0.74723779	        -49.83497582	         22.20764578	         -8.83320501	          6.75716192	        -27.67579378	         -7.78065464	         -2.41195914	        -32.29247876	         -9.71586210	        -16.99539618	         46.92368607	         77.12340338	        -26.91713725	         31.04474904	          0.87411429	        -11.00208733	         -6.74377962	         71.37383303	         68.82709103	          4.68958522	         19.62246577	
          0.65981068	        -17.73601686	          3.28965846	         10.70530492	          0.33291063	          0.89188486	          0.33842942	         33.72359120	         -9.86045103	        -16.48559502	       -113.58909664	        -13.08256935	        -31.44037693	         -8.64640628	         29.15524405	          5.97483728	          0.84680964	        -49.77408996	         22.21351080	         -8.81555998	          6.83711778	        -27.64838066	         -7.63918247	         -2.44565483	        -32.57770352	         -9.63489117	        -17.13359001	         46.73949176	         77.11701672	        -26.89339406	         31.10917495	          1.19952422	        -10.91883610	         -6.62033269	         71.63379250	         68.74398439	          4.68960506	         19.60864724	
          0.66123465	        -17.78463344	          3.14535167	         11.13531442	          0.34020721	          0.89151194	          0.33794495	         34.69104610	        -10.00895855	        -16.67198972	       -114.25436675	        -12.53579659	        -31.38549161	         -8.54074946	         28.64240698	          5.91880177	          1.16141603	        -49.58171550	         22.23204185	         -8.75980890	          7.08974565	        -27.56176636	         -7.19218819	         -2.55211946	        -33.47889736	         -9.37905609	        -17.57022612	         46.15751291	         77.09683750	        -26.81837525	         31.31273453	          2.22768675	        -10.65579621	         -6.23029078	         72.45515831	         68.48140132	          4.68966773	         19.56498632	
          0.66226667	        -17.81288597	          3.03327661	         11.45877386	          0.34547547	          0.89125203	          0.33758971	         35.39222090	        -10.12786979	        -16.80659949	       -114.70158698	        -12.14472590	        -31.34284697	         -8.45674127	         28.26714617	          5.86121871	          1.40678609	        -49.43192703	         22.22152742	         -8.70837271	          7.28572120	        -27.49749678	         -6.85077292	         -2.65397311	        -34.15879506	         -9.17065561	        -17.95840309	         45.88150106	         77.09794718	        -26.75465399	         31.45230497	          2.95330641	        -10.46157859	         -5.95161793	         73.10239222	         68.24939853	          4.68530624	         19.53952074	
          0.66226667	        -17.81288597	          3.03327661	         11.45877386	          0.34547547	          0.89125203	          0.33758971	         35.39222090	        -10.12786979	        -16.80659949	       -114.70158698	        -12.14472590	        -31.34284697	         -8.45674127	         28.26714617	          5.86121871	          1.40678609	        -49.43192703	         22.22152742	         -8.70837271	          7.28572120	        -27.49749678	         -6.85077292	         -2.65397311	        -34.15879506	         -9.17065561	        -17.95840309	         45.88150106	         77.09794718	        -26.75465399	         31.45230497	          2.95330641	        -10.46157859	         -5.95161793	         73.10239222	         68.24939853	          4.68530624	         19.53952074	
          0.66271735	        -17.82515372	          2.98425810	         11.60014750	          0.34777592	          0.89113863	          0.33743454	         35.69842458	        -10.17991175	        -16.86537885	       -114.89653739	        -11.97399731	        -31.32419522	         -8.41998014	         28.10323351	          5.83590163	          1.51411379	        -49.36641015	         22.21669518	         -8.68579966	          7.37143331	        -27.46941518	         -6.70150123	         -2.69870078	        -34.45597574	         -9.07941604	        -18.12864091	         45.76243113	         77.09858987	        -26.72673290	         31.51317551	          3.26998873	        -10.37672765	         -5.82996157	         73.38556171	         68.14766380	          4.68335729	         19.52846197	
          0.66414132	        -17.86391478	          2.82937964	         12.04683050	          0.35504442	          0.89078034	          0.33694425	         36.66590321	        -10.34434312	        -17.05109764	       -115.51250113	        -11.43456465	        -31.26526332	         -8.30382999	         27.58533639	          5.75591000	          1.85322550	        -49.15940355	         22.20142728	         -8.61447804	          7.64224860	        -27.38068877	         -6.22986361	         -2.84002196	        -35.39494538	         -8.79113623	        -18.66652292	         45.38621878	         77.10062051	        -26.63851369	         31.70550159	          4.27057559	        -10.10863330	         -5.44557715	         74.28026169	         67.82622361	          4.67719943	         19.49352077	
          0.66517333	        -17.88584815	          2.70840495	         12.37907064	          0.36029439	          0.89052859	          0.33658417	         37.36746473	        -10.47183602	        -17.18282115	       -115.92580425	        -11.04780368	        -31.21838802	         -8.21166969	         27.20505927	          5.68115316	          2.11839936	        -48.99547059	         22.17384520	         -8.55894236	          7.84704561	        -27.31209245	         -5.87180616	         -2.96565894	        -36.09710875	         -8.56730979	        -19.10553345	         45.23833042	         77.14059576	        -26.56467091	         31.84108756	          4.97772144	         -9.91293321	         -5.17092916	         74.97456156	         67.55680267	          4.66786224	         19.47287058	
          0.66517333	        -17.88584815	          2.70840495	         12.37907064	          0.36029439	          0.89052859	          0.33658417	         37.36746473	        -10.47183602	        -17.18282115	       -115.92580425	        -11.04780368	        -31.21838802	         -8.21166969	         27.20505927	          5.68115316	          2.11839936	        -48.99547059	         22.17384520	         -8.55894236	          7.84704561	        -27.31209245	         -5.87180616	         -2.96565894	        -36.09710875	         -8.56730979	        -19.10553345	         45.23833042	         77.14059576	        -26.56467091	         31.84108756	          4.97772144	         -9.91293321	         -5.17092916	         74.97456156	         67.55680267	          4.66786224	         19.47287058	
